<svg width="21" height="20" viewBox="0 0 21 20" fill="none" xmlns="http://www.w3.org/2000/svg">
<path d="M11.207 2.293C11.0195 2.10553 10.7652 2.00021 10.5 2.00021C10.2348 2.00021 9.98054 2.10553 9.79301 2.293L2.79301 9.293C2.61085 9.4816 2.51006 9.7342 2.51234 9.9964C2.51461 10.2586 2.61978 10.5094 2.80519 10.6948C2.9906 10.8802 3.24141 10.9854 3.50361 10.9877C3.76581 10.99 4.01841 10.8892 4.20701 10.707L4.50001 10.414V17C4.50001 17.2652 4.60537 17.5196 4.7929 17.7071C4.98044 17.8946 5.23479 18 5.50001 18H7.50001C7.76523 18 8.01958 17.8946 8.20712 17.7071C8.39465 17.5196 8.50001 17.2652 8.50001 17V15C8.50001 14.7348 8.60537 14.4804 8.7929 14.2929C8.98044 14.1054 9.23479 14 9.50001 14H11.5C11.7652 14 12.0196 14.1054 12.2071 14.2929C12.3947 14.4804 12.5 14.7348 12.5 15V17C12.5 17.2652 12.6054 17.5196 12.7929 17.7071C12.9804 17.8946 13.2348 18 13.5 18H15.5C15.7652 18 16.0196 17.8946 16.2071 17.7071C16.3947 17.5196 16.5 17.2652 16.5 17V10.414L16.793 10.707C16.9816 10.8892 17.2342 10.99 17.4964 10.9877C17.7586 10.9854 18.0094 10.8802 18.1948 10.6948C18.3802 10.5094 18.4854 10.2586 18.4877 9.9964C18.49 9.7342 18.3892 9.4816 18.207 9.293L11.207 2.293Z" fill="black"/>
</svg>
