<svg width="21" height="20" viewBox="0 0 21 20" fill="none" xmlns="http://www.w3.org/2000/svg">
<path fill-rule="evenodd" clip-rule="evenodd" d="M10.5 18C12.6217 18 14.6566 17.1571 16.1569 15.6569C17.6571 14.1566 18.5 12.1217 18.5 10C18.5 7.87827 17.6571 5.84344 16.1569 4.34315C14.6566 2.84285 12.6217 2 10.5 2C8.37827 2 6.34344 2.84285 4.84315 4.34315C3.34285 5.84344 2.5 7.87827 2.5 10C2.5 12.1217 3.34285 14.1566 4.84315 15.6569C6.34344 17.1571 8.37827 18 10.5 18ZM11.5 7C11.5 6.73478 11.3946 6.48043 11.2071 6.29289C11.0196 6.10536 10.7652 6 10.5 6C10.2348 6 9.98043 6.10536 9.79289 6.29289C9.60536 6.48043 9.5 6.73478 9.5 7V9H7.5C7.23478 9 6.98043 9.10536 6.79289 9.29289C6.60536 9.48043 6.5 9.73478 6.5 10C6.5 10.2652 6.60536 10.5196 6.79289 10.7071C6.98043 10.8946 7.23478 11 7.5 11H9.5V13C9.5 13.2652 9.60536 13.5196 9.79289 13.7071C9.98043 13.8946 10.2348 14 10.5 14C10.7652 14 11.0196 13.8946 11.2071 13.7071C11.3946 13.5196 11.5 13.2652 11.5 13V11H13.5C13.7652 11 14.0196 10.8946 14.2071 10.7071C14.3946 10.5196 14.5 10.2652 14.5 10C14.5 9.73478 14.3946 9.48043 14.2071 9.29289C14.0196 9.10536 13.7652 9 13.5 9H11.5V7Z" fill="black"/>
</svg>
