<svg width="21" height="20" viewBox="0 0 21 20" fill="none" xmlns="http://www.w3.org/2000/svg">
<path d="M9.5 2C9.23478 2 8.98043 2.10536 8.79289 2.29289C8.60536 2.48043 8.5 2.73478 8.5 3C8.5 3.26522 8.60536 3.51957 8.79289 3.70711C8.98043 3.89464 9.23478 4 9.5 4H11.5C11.7652 4 12.0196 3.89464 12.2071 3.70711C12.3946 3.51957 12.5 3.26522 12.5 3C12.5 2.73478 12.3946 2.48043 12.2071 2.29289C12.0196 2.10536 11.7652 2 11.5 2H9.5Z" fill="black"/>
<path fill-rule="evenodd" clip-rule="evenodd" d="M4.5 5C4.5 4.46957 4.71071 3.96086 5.08579 3.58579C5.46086 3.21071 5.96957 3 6.5 3C6.5 3.79565 6.81607 4.55871 7.37868 5.12132C7.94129 5.68393 8.70435 6 9.5 6H11.5C12.2956 6 13.0587 5.68393 13.6213 5.12132C14.1839 4.55871 14.5 3.79565 14.5 3C15.0304 3 15.5391 3.21071 15.9142 3.58579C16.2893 3.96086 16.5 4.46957 16.5 5V16C16.5 16.5304 16.2893 17.0391 15.9142 17.4142C15.5391 17.7893 15.0304 18 14.5 18H6.5C5.96957 18 5.46086 17.7893 5.08579 17.4142C4.71071 17.0391 4.5 16.5304 4.5 16V5ZM7.5 9C7.23478 9 6.98043 9.10536 6.79289 9.29289C6.60536 9.48043 6.5 9.73478 6.5 10C6.5 10.2652 6.60536 10.5196 6.79289 10.7071C6.98043 10.8946 7.23478 11 7.5 11H7.51C7.77522 11 8.02957 10.8946 8.21711 10.7071C8.40464 10.5196 8.51 10.2652 8.51 10C8.51 9.73478 8.40464 9.48043 8.21711 9.29289C8.02957 9.10536 7.77522 9 7.51 9H7.5ZM10.5 9C10.2348 9 9.98043 9.10536 9.79289 9.29289C9.60536 9.48043 9.5 9.73478 9.5 10C9.5 10.2652 9.60536 10.5196 9.79289 10.7071C9.98043 10.8946 10.2348 11 10.5 11H13.5C13.7652 11 14.0196 10.8946 14.2071 10.7071C14.3946 10.5196 14.5 10.2652 14.5 10C14.5 9.73478 14.3946 9.48043 14.2071 9.29289C14.0196 9.10536 13.7652 9 13.5 9H10.5ZM7.5 13C7.23478 13 6.98043 13.1054 6.79289 13.2929C6.60536 13.4804 6.5 13.7348 6.5 14C6.5 14.2652 6.60536 14.5196 6.79289 14.7071C6.98043 14.8946 7.23478 15 7.5 15H7.51C7.77522 15 8.02957 14.8946 8.21711 14.7071C8.40464 14.5196 8.51 14.2652 8.51 14C8.51 13.7348 8.40464 13.4804 8.21711 13.2929C8.02957 13.1054 7.77522 13 7.51 13H7.5ZM10.5 13C10.2348 13 9.98043 13.1054 9.79289 13.2929C9.60536 13.4804 9.5 13.7348 9.5 14C9.5 14.2652 9.60536 14.5196 9.79289 14.7071C9.98043 14.8946 10.2348 15 10.5 15H13.5C13.7652 15 14.0196 14.8946 14.2071 14.7071C14.3946 14.5196 14.5 14.2652 14.5 14C14.5 13.7348 14.3946 13.4804 14.2071 13.2929C14.0196 13.1054 13.7652 13 13.5 13H10.5Z" fill="black"/>
</svg>
